<?xml version="1.0" standalone="no"?>
<!DOCTYPE svg PUBLIC "-//W3C//DTD SVG 20010904//EN" "http://www.w3.org/TR/2001/REC-SVG-20010904/DTD/svg10.dtd">
<svg version="1.0" xmlns="http://www.w3.org/2000/svg"  viewBox="0 0 512.000000 512.000000" preserveAspectRatio="xMidYMid meet">
    <metadata>
Created by potrace 1.16, written by Peter Selinger 2001-2019
</metadata>
    <g transform="translate(0.000000,512.000000) scale(0.100000,-0.100000)"  stroke="none">
        <path d="M2465 4974 c-22 -14 -49 -38 -61 -53 -12 -14 -218 -314 -459 -666
-241 -352 -440 -642 -441 -644 -2 -2 -310 -82 -686 -178 -376 -95 -703 -184
-728 -196 -25 -13 -55 -38 -67 -57 -31 -45 -31 -121 0 -172 12 -20 272 -312
577 -648 305 -336 556 -619 558 -629 2 -10 -46 -324 -107 -697 -135 -834 -125
-763 -112 -811 22 -83 90 -118 180 -94 25 7 306 126 625 266 320 140 610 261
646 269 80 19 253 20 335 2 75 -16 65 -13 720 -301 474 -210 547 -239 601
-243 59 -4 64 -3 100 31 63 58 63 67 -71 942 l-115 759 72 76 c40 41 294 298
564 570 271 272 499 509 508 527 9 18 16 50 16 73 0 63 -24 98 -83 125 -32 14
-308 77 -727 165 -371 78 -691 146 -711 151 -35 9 -52 33 -455 682 -230 369
-427 684 -438 698 -39 50 -95 79 -151 79 -38 0 -61 -7 -90 -26z" />
    </g>
</svg>